HIERARCHY
ROOT Hips
{
	OFFSET 0.000000 100.481300 0.000000
	CHANNELS 6 Xposition Yposition Zposition Xrotation Yrotation Zrotation
	JOINT Spine
	{
		OFFSET -0.279200 12.230698 -2.892100
		CHANNELS 3 Xrotation Yrotation Zrotation
		JOINT Spine1
		{
			OFFSET -0.325700 14.269203 -3.374200
			CHANNELS 3 Xrotation Yrotation Zrotation
			JOINT Spine2
			{
				OFFSET -0.372300 16.307602 -0.352600
				CHANNELS 3 Xrotation Yrotation Zrotation
				JOINT Neck
				{
					OFFSET -0.418800 17.814194 8.416900
					CHANNELS 3 Xrotation Yrotation Zrotation
					JOINT Head
					{
						OFFSET 0.000000 7.031097 3.806800
						CHANNELS 3 Xrotation Yrotation Zrotation
						JOINT HeadTop_End
						{
							OFFSET 0.000000 24.646606 12.978600
							CHANNELS 3 Xrotation Yrotation Zrotation
							End Site
							{
								OFFSET 0.000000 27.854965 0.000000
							}
						}
					}
				}
				JOINT LeftShoulder
				{
					OFFSET 16.952999 14.495407 -7.737500
					CHANNELS 3 Xrotation Yrotation Zrotation
					JOINT LeftArm
					{
						OFFSET 9.308998 -2.777710 0.208600
						CHANNELS 3 Xrotation Yrotation Zrotation
						JOINT LeftForeArm
						{
							OFFSET 29.972298 0.000000 0.000000
							CHANNELS 3 Xrotation Yrotation Zrotation
							JOINT LeftHand
							{
								OFFSET 26.026505 0.000000 0.000000
								CHANNELS 3 Xrotation Yrotation Zrotation
								JOINT LeftHandThumb1
								{
									OFFSET 12.240501 -7.147949 9.207150
									CHANNELS 3 Xrotation Yrotation Zrotation
									JOINT LeftHandThumb2
									{
										OFFSET 4.138618 -2.389435 2.389433
										CHANNELS 3 Xrotation Yrotation Zrotation
										JOINT LeftHandThumb3
										{
											OFFSET 2.726913 -1.574387 1.574386
											CHANNELS 3 Xrotation Yrotation Zrotation
											JOINT LeftHandThumb4
											{
												OFFSET 3.941010 -2.275345 2.275342
												CHANNELS 3 Xrotation Yrotation Zrotation
												End Site
												{
													OFFSET -0.005798 5.087799 0.009903
												}
											}
										}
									}
								}
								JOINT LeftHandIndex1
								{
									OFFSET 24.424698 -1.985611 5.953459
									CHANNELS 3 Xrotation Yrotation Zrotation
									JOINT LeftHandIndex2
									{
										OFFSET 6.426697 0.000000 0.000000
										CHANNELS 3 Xrotation Yrotation Zrotation
										JOINT LeftHandIndex3
										{
											OFFSET 5.337898 0.000000 0.000000
											CHANNELS 3 Xrotation Yrotation Zrotation
											JOINT LeftHandIndex4
											{
												OFFSET 4.409401 0.000000 0.000000
												CHANNELS 3 Xrotation Yrotation Zrotation
												End Site
												{
													OFFSET 0.000000 4.409363 0.014373
												}
											}
										}
									}
								}
								JOINT LeftHandMiddle1
								{
									OFFSET 23.810104 0.000000 0.000000
									CHANNELS 3 Xrotation Yrotation Zrotation
									JOINT LeftHandMiddle2
									{
										OFFSET 7.176498 0.000000 0.000000
										CHANNELS 3 Xrotation Yrotation Zrotation
										JOINT LeftHandMiddle3
										{
											OFFSET 6.774902 0.000000 0.000000
											CHANNELS 3 Xrotation Yrotation Zrotation
											JOINT LeftHandMiddle4
											{
												OFFSET 5.403328 0.000000 0.000000
												CHANNELS 3 Xrotation Yrotation Zrotation
												End Site
												{
													OFFSET -0.027702 5.403244 0.017414
												}
											}
										}
									}
								}
								JOINT LeftHandRing1
								{
									OFFSET 22.908401 -0.839279 -6.020567
									CHANNELS 3 Xrotation Yrotation Zrotation
									JOINT LeftHandRing2
									{
										OFFSET 6.337502 0.000000 0.000000
										CHANNELS 3 Xrotation Yrotation Zrotation
										JOINT LeftHandRing3
										{
											OFFSET 5.779297 0.000000 0.000000
											CHANNELS 3 Xrotation Yrotation Zrotation
											JOINT LeftHandRing4
											{
												OFFSET 4.965698 0.000000 0.000000
												CHANNELS 3 Xrotation Yrotation Zrotation
												End Site
												{
													OFFSET 0.000000 4.965668 0.016186
												}
											}
										}
									}
								}
								JOINT LeftHandPinky1
								{
									OFFSET 20.037003 -1.530319 -10.950146
									CHANNELS 3 Xrotation Yrotation Zrotation
									JOINT LeftHandPinky2
									{
										OFFSET 5.254700 0.000000 0.000000
										CHANNELS 3 Xrotation Yrotation Zrotation
										JOINT LeftHandPinky3
										{
											OFFSET 4.810204 0.000000 0.000000
											CHANNELS 3 Xrotation Yrotation Zrotation
											JOINT LeftHandPinky4
											{
												OFFSET 3.647202 0.000000 0.000000
												CHANNELS 3 Xrotation Yrotation Zrotation
												End Site
												{
													OFFSET 0.000000 3.647186 0.011889
												}
											}
										}
									}
								}
							}
						}
					}
				}
				JOINT RightShoulder
				{
					OFFSET -15.141001 14.495407 -7.737500
					CHANNELS 3 Xrotation Yrotation Zrotation
					JOINT RightArm
					{
						OFFSET -9.308998 -2.777710 0.208500
						CHANNELS 3 Xrotation Yrotation Zrotation
						JOINT RightForeArm
						{
							OFFSET -29.972300 0.000000 0.000000
							CHANNELS 3 Xrotation Yrotation Zrotation
							JOINT RightHand
							{
								OFFSET -26.026505 0.000000 0.000000
								CHANNELS 3 Xrotation Yrotation Zrotation
								JOINT RightHandThumb1
								{
									OFFSET -12.240601 -7.148026 9.207092
									CHANNELS 3 Xrotation Yrotation Zrotation
									JOINT RightHandThumb2
									{
										OFFSET -4.138618 -2.389435 2.389433
										CHANNELS 3 Xrotation Yrotation Zrotation
										JOINT RightHandThumb3
										{
											OFFSET -2.726974 -1.574417 1.574421
											CHANNELS 3 Xrotation Yrotation Zrotation
											JOINT RightHandThumb4
											{
												OFFSET -3.941010 -2.275345 2.275343
												CHANNELS 3 Xrotation Yrotation Zrotation
												End Site
												{
													OFFSET 0.005814 5.087799 0.009927
												}
											}
										}
									}
								}
								JOINT RightHandIndex1
								{
									OFFSET -24.424698 -1.985657 5.953444
									CHANNELS 3 Xrotation Yrotation Zrotation
									JOINT RightHandIndex2
									{
										OFFSET -6.426697 0.000000 0.000000
										CHANNELS 3 Xrotation Yrotation Zrotation
										JOINT RightHandIndex3
										{
											OFFSET -5.337898 0.000000 0.000000
											CHANNELS 3 Xrotation Yrotation Zrotation
											JOINT RightHandIndex4
											{
												OFFSET -4.409401 0.000000 0.000000
												CHANNELS 3 Xrotation Yrotation Zrotation
												End Site
												{
													OFFSET 0.000000 4.409363 0.014408
												}
											}
										}
									}
								}
								JOINT RightHandMiddle1
								{
									OFFSET -23.810097 0.000000 0.000000
									CHANNELS 3 Xrotation Yrotation Zrotation
									JOINT RightHandMiddle2
									{
										OFFSET -7.176498 0.000000 0.000000
										CHANNELS 3 Xrotation Yrotation Zrotation
										JOINT RightHandMiddle3
										{
											OFFSET -6.774902 0.000000 0.000000
											CHANNELS 3 Xrotation Yrotation Zrotation
											JOINT RightHandMiddle4
											{
												OFFSET -5.403328 0.000000 0.000000
												CHANNELS 3 Xrotation Yrotation Zrotation
												End Site
												{
													OFFSET 0.027702 5.403244 0.017457
												}
											}
										}
									}
								}
								JOINT RightHandRing1
								{
									OFFSET -22.908302 -0.839325 -6.020576
									CHANNELS 3 Xrotation Yrotation Zrotation
									JOINT RightHandRing2
									{
										OFFSET -6.337502 0.000000 0.000000
										CHANNELS 3 Xrotation Yrotation Zrotation
										JOINT RightHandRing3
										{
											OFFSET -5.779297 0.000000 0.000000
											CHANNELS 3 Xrotation Yrotation Zrotation
											JOINT RightHandRing4
											{
												OFFSET -4.965698 0.000000 0.000000
												CHANNELS 3 Xrotation Yrotation Zrotation
												End Site
												{
													OFFSET 0.000000 4.965668 0.016226
												}
											}
										}
									}
								}
								JOINT RightHandPinky1
								{
									OFFSET -20.037003 -1.530334 -10.950259
									CHANNELS 3 Xrotation Yrotation Zrotation
									JOINT RightHandPinky2
									{
										OFFSET -5.254700 0.000000 0.000000
										CHANNELS 3 Xrotation Yrotation Zrotation
										JOINT RightHandPinky3
										{
											OFFSET -4.810204 0.000000 0.000000
											CHANNELS 3 Xrotation Yrotation Zrotation
											JOINT RightHandPinky4
											{
												OFFSET -3.647202 0.000000 0.000000
												CHANNELS 3 Xrotation Yrotation Zrotation
												End Site
												{
													OFFSET 0.000000 3.647186 0.011917
												}
											}
										}
									}
								}
							}
						}
					}
				}
			}
		}
	}
	JOINT LeftUpLeg
	{
		OFFSET 15.427100 -6.655098 0.678600
		CHANNELS 3 Xrotation Yrotation Zrotation
		JOINT LeftLeg
		{
			OFFSET 4.081073 -39.591068 13.024000
			CHANNELS 3 Xrotation Yrotation Zrotation
			JOINT LeftFoot
			{
				OFFSET -4.081074 -37.707932 -15.979700
				CHANNELS 3 Xrotation Yrotation Zrotation
				JOINT LeftToeBase
				{
					OFFSET 5.346399 -15.068900 20.645000
					CHANNELS 3 Xrotation Yrotation Zrotation
					JOINT LeftToe_End
					{
						OFFSET 2.754700 0.931300 11.300900
						CHANNELS 3 Xrotation Yrotation Zrotation
						End Site
						{
							OFFSET 0.000000 11.669021 0.000000
						}
					}
				}
			}
		}
	}
	JOINT RightUpLeg
	{
		OFFSET -15.569500 -6.655098 0.678600
		CHANNELS 3 Xrotation Yrotation Zrotation
		JOINT RightLeg
		{
			OFFSET -4.081825 -39.591045 13.023800
			CHANNELS 3 Xrotation Yrotation Zrotation
			JOINT RightFoot
			{
				OFFSET 4.081824 -37.707954 -15.979600
				CHANNELS 3 Xrotation Yrotation Zrotation
				JOINT RightToeBase
				{
					OFFSET -5.346400 -15.068900 20.645000
					CHANNELS 3 Xrotation Yrotation Zrotation
					JOINT RightToe_End
					{
						OFFSET -2.754700 0.931300 11.300900
						CHANNELS 3 Xrotation Yrotation Zrotation
						End Site
						{
							OFFSET 0.000000 11.669021 0.000000
						}
					}
				}
			}
		}
	}
}
MOTION
Frames: 4
Frame Time: 0.033333
-2.257710 99.254341 -1.499324 -1.256469 6.354260 -3.291659 4.784073 1.412375 0.727663 2.969069 0.392895 -0.184898 2.959350 0.493262 -0.187477 8.335457 5.884090 -15.836075 18.893954 21.706522 -19.611814 -0.000000 0.000001 -0.000002 1.129789 1.639042 -7.263344 -62.200094 -79.193947 -98.376663 -0.000032 -117.456113 -0.000033 -26.275381 -8.391511 15.483409 -13.412670 -11.891439 15.544829 7.750435 14.405453 9.880231 -4.807114 38.394143 12.511076 0.000001 0.000002 -0.000004 -12.047159 -11.739837 -47.106360 0.447485 2.247504 -22.518311 0.538865 2.456156 -24.744908 0.000002 0.000001 0.000001 -6.776448 -4.248460 -39.043503 0.555871 2.492742 -25.139114 0.408185 2.150299 -21.493711 0.000002 -0.000002 -0.000001 -3.933713 -2.899887 -30.758903 0.976824 3.240692 -33.540477 0.822954 2.995996 -30.712509 -0.000003 -0.000001 0.000001 -2.158279 7.207645 -31.697829 0.283668 1.802646 -17.885257 0.864570 3.064839 -31.499337 -0.000002 0.000001 0.000001 4.792155 31.372869 3.472704 48.855144 -5.639472 59.620448 -0.000054 98.717865 0.000040 -9.340625 -16.614674 1.725488 17.406114 -14.297810 7.643593 0.668378 -13.188245 -27.437987 -11.010350 -14.019393 -15.878704 0.000001 -0.000001 -0.000001 0.027286 0.412061 10.316088 1.521846 -3.445397 47.652283 1.002562 -2.888657 38.273559 0.000000 -0.000001 0.000000 0.589603 -5.129789 13.196081 2.333467 -4.037140 60.041939 2.405843 -4.077912 61.064753 -0.000000 0.000000 0.000001 -3.979105 6.091166 23.854121 2.524792 -4.141265 62.724639 2.282948 -4.007681 59.321846 0.000004 0.000001 0.000000 -4.166327 -11.594837 -9.915014 0.729287 -2.504157 32.469951 0.690349 -2.441939 31.567454 -0.000000 -0.000003 0.000002 -13.849311 14.434097 10.347507 4.761011 -2.810221 4.718008 7.875516 -6.496703 -8.163276 -5.020024 -0.000007 -0.000002 0.000000 0.000001 0.000000 5.085402 -8.241208 7.676119 1.307179 -9.046568 -7.512096 -3.553270 -15.841517 5.477548 -7.265907 0.000001 -0.000001 0.000000 0.000001 -0.000000 
-2.341738 99.385765 -1.464370 -1.336821 6.903486 -3.030794 4.706598 1.314970 0.820443 2.900950 0.222480 -0.034381 2.892488 0.315556 -0.037254 8.695230 5.753463 -15.459305 19.311352 21.625419 -19.771188 0.000002 0.000002 -0.000004 1.175185 0.495241 -6.966399 -56.682248 -78.598388 -93.072522 -0.000006 -117.699596 -0.000001 -26.373662 -8.119479 14.580099 -12.982884 -11.754886 15.456733 7.670851 14.286966 10.361647 -5.314588 36.607195 12.485897 0.000000 0.000000 0.000000 -10.965182 -12.310705 -43.497612 0.399528 2.128227 -21.262101 0.464754 2.288678 -22.954598 -0.000001 0.000001 0.000001 -6.128431 -4.339450 -36.456814 0.514331 2.402270 -24.166066 0.380465 2.078609 -20.742793 -0.000006 -0.000002 0.000000 -3.609039 -3.059195 -28.546397 0.763125 2.893061 -29.547972 0.626683 2.638230 -26.720883 -0.000000 0.000000 0.000000 -2.454008 6.426417 -29.533154 0.245194 1.678749 -16.618559 0.763484 2.893705 -29.555007 -0.000000 0.000001 -0.000001 4.225074 29.869121 4.824998 46.715878 -6.514963 59.367349 -0.000130 95.641732 0.000132 -8.499041 -17.256026 1.929848 14.876809 -15.269812 2.766560 0.804635 -12.769232 -26.783187 -10.937693 -14.189623 -15.929171 -0.000001 0.000000 -0.000000 0.139036 0.424015 8.820163 1.481996 -3.408731 46.985476 0.969234 -2.845960 37.607486 0.000001 0.000001 -0.000000 0.559566 -5.283221 11.307802 2.322022 -4.030540 59.879435 2.394496 -4.071644 60.905104 -0.000002 0.000001 0.000002 -3.534428 5.950503 21.955686 2.492966 -4.124754 62.283068 2.252354 -3.989414 58.883054 0.000004 0.000001 0.000001 -4.678495 -11.589412 -12.137411 0.686725 -2.436048 31.482350 0.648866 -2.373160 30.579962 -0.000002 -0.000002 0.000001 -13.431842 14.480619 10.024568 4.006091 -2.631996 4.654028 8.235439 -7.181618 -8.143122 -5.019858 -0.000008 -0.000002 0.000000 0.000000 0.000000 5.400066 -8.213959 7.704192 0.933430 -9.079100 -7.830185 -3.424072 -16.352573 5.527830 -7.266632 -0.000007 0.000001 -0.000000 0.000000 -0.000000 
-2.438622 99.544914 -1.445430 -1.402565 7.220415 -2.774998 4.559956 1.197382 0.926903 2.756343 0.015598 0.137927 2.748403 0.098690 0.133916 9.316906 5.627904 -15.213652 19.737525 21.845544 -20.091618 0.000001 -0.000001 0.000002 1.239345 -1.034841 -6.880707 -49.730396 -77.552953 -86.323278 -0.000012 -118.264507 -0.000003 -27.055908 -7.213467 13.248635 -12.524394 -11.925431 15.268196 7.636309 14.316364 10.966303 -5.994103 34.161277 12.417303 0.000000 0.000001 -0.000003 -9.375931 -12.718712 -38.959283 0.340893 1.971006 -19.622676 0.375292 2.064909 -20.599772 0.000002 -0.000000 0.000001 -5.423317 -4.721692 -32.707317 0.452749 2.260126 -22.652087 0.338199 1.963500 -19.544651 -0.000002 -0.000004 0.000001 -3.050352 -3.520964 -24.122963 0.567459 2.517273 -25.404310 0.449845 2.253204 -22.578650 0.000003 -0.000002 0.000000 -2.752922 5.429501 -26.831331 0.218962 1.588296 -15.698700 0.673870 2.729857 -27.728516 -0.000004 -0.000003 -0.000000 3.863859 28.358402 5.589068 44.427317 -6.899791 58.695319 0.000261 92.526940 -0.000258 -7.583268 -17.688638 3.050992 12.979477 -15.218857 3.885271 1.778366 -14.314877 -25.917317 -11.435152 -13.019424 -15.586212 -0.000000 0.000001 -0.000000 0.051520 0.040036 11.965504 1.425327 -3.355036 46.024704 0.922097 -2.783783 36.647711 0.000001 0.000001 0.000000 0.596305 -4.989040 14.519756 2.286743 -4.009919 59.376002 2.358446 -4.051416 60.396214 0.000000 0.000002 0.000003 -3.675102 5.157735 24.318059 2.436807 -4.094832 61.499283 2.198396 -3.956427 58.104378 0.000001 -0.000002 -0.000002 -3.334129 -11.218865 -6.644838 0.610553 -2.307179 29.642048 0.574745 -2.243107 28.739780 -0.000001 -0.000000 0.000000 -12.917087 14.542583 9.726154 3.139028 -2.442219 4.582180 8.631051 -7.662814 -8.130178 -5.011761 -0.000005 0.000000 -0.000000 -0.000001 0.000000 5.714699 -8.170258 7.690096 0.439115 -9.123220 -8.084972 -3.226429 -16.629364 5.552528 -7.269580 0.000009 0.000001 -0.000000 0.000000 -0.000000 
-2.495907 99.586845 -1.415592 -1.440912 7.355020 -2.583956 4.382176 1.083375 1.090050 2.565187 -0.193899 0.309516 2.556823 -0.121225 0.303658 10.028574 5.528493 -15.088337 20.107764 22.284023 -20.493303 -0.000002 0.000001 -0.000001 1.301260 -2.596762 -6.985220 -43.114302 -76.011939 -79.921915 -0.000017 -119.059172 -0.000033 -28.141559 -5.902188 11.703603 -11.787398 -11.554565 15.113194 7.885935 15.097314 11.533279 -6.724677 31.390962 12.286662 0.000001 -0.000000 0.000002 -7.786758 -12.581148 -34.940557 0.294056 1.834439 -18.212399 0.297740 1.845646 -18.327435 -0.000002 0.000000 -0.000001 -4.744034 -4.879923 -29.435332 0.390585 2.105103 -21.019967 0.296708 1.842471 -18.294901 0.000002 -0.000002 0.000001 -2.536475 -3.772262 -20.404335 0.397920 2.124123 -21.219014 0.299911 1.852120 -18.394254 0.000001 -0.000001 -0.000001 -2.793914 4.831686 -25.727190 0.215559 1.576056 -15.574593 0.617151 2.619219 -26.512981 -0.000004 -0.000000 0.000000 3.655412 26.778414 5.861223 42.155354 -6.591642 58.105000 -0.012651 89.211143 0.012865 -7.418314 -17.040383 3.444307 9.742907 -11.856319 2.863254 3.327559 -17.136021 -24.921221 -12.230513 -11.160222 -15.036153 0.000000 -0.000003 0.000001 0.141554 -0.694502 15.375914 1.320530 -3.250846 44.206197 0.835760 -2.663945 34.831137 -0.000000 -0.000000 0.000000 0.610333 -4.752725 17.912706 2.194529 -3.954031 58.048302 2.264983 -3.996999 59.064457 -0.000000 -0.000002 0.000002 -3.631328 3.956642 27.033971 2.304233 -4.020204 59.625899 2.071304 -3.874610 56.243244 -0.000004 0.000001 0.000001 -1.730803 -10.463560 0.884541 0.499159 -2.099509 26.744767 0.466622 -2.033684 25.842796 0.000003 -0.000001 -0.000001 -12.663114 14.548624 9.561066 2.806364 -2.246052 4.522515 8.748324 -7.943318 -8.129533 -4.994071 0.000001 -0.000003 0.000000 0.000000 0.000000 5.839377 -8.141579 7.648275 0.283538 -9.176357 -8.255998 -3.259886 -16.755450 5.510071 -7.272496 -0.000010 -0.000001 0.000000 0.000000 0.000000 
